<?xml version="1.0" encoding="UTF-8"?><svg id="_レイヤー_1" xmlns="http://www.w3.org/2000/svg" viewBox="0 0 1617.49 958.29"><defs><style>.cls-1{stroke-width:79.37px;}.cls-1,.cls-2{fill:none;stroke:#fff;stroke-linecap:round;stroke-linejoin:round;}.cls-3{font-family:RoGSanSrfStd-Bd-90ms-RKSJ-H, 'Ro GSan Serif Std';font-size:233.45px;}.cls-3,.cls-4{fill:#fff;}.cls-4{stroke-width:0px;}.cls-2{stroke-width:77.04px;}</style></defs><circle class="cls-4" cx="343.57" cy="92.59" r="92.59"/><path class="cls-2" d="M400.54,249.85s71.95,40.1,102.62,61.34c30.67,21.23,68.41,188.72,68.41,188.72"/><path class="cls-2" d="M38.52,406.94s147.44-26.54,168.67-41.87c21.23-15.33,95.54-121.49,95.54-121.49"/><path class="cls-4" d="M274.61,222.67l-23.63,154.78v194.03s49.98,10.62,60.01,30.08h104.39s10.03-2.95,15.33-37.74l5.46-333.22s-8.4-14.15-25.51-18.28c-17.1-4.13-93.61-8.85-93.61-8.85,0,0-14.35-1.88-29.44,3.35-6.94,2.4-11.88,8.59-12.99,15.86Z"/><path class="cls-1" d="M346.18,563.11s-91.82-1.95-238.07-4.57l82.27,191.05"/><line class="cls-1" x1="390.46" y1="554.13" x2="376.9" y2="918.6"/><text class="cls-3" transform="translate(782.22 440.22)"><tspan x="0" y="0">Knee</tspan><tspan x="0" y="280.14">Festa</tspan></text></svg>