<?xml version="1.0" encoding="UTF-8"?><svg id="Logo" xmlns="http://www.w3.org/2000/svg" viewBox="0 0 1603.49 958.29"><defs><style>.cls-1{stroke-width:79.37px;}.cls-1,.cls-2{fill:none;stroke:#fff;stroke-linecap:round;stroke-linejoin:round;}.cls-3{fill:#fff;stroke-width:0px;}.cls-2{stroke-width:77.04px;}</style></defs><circle class="cls-3" cx="343.57" cy="92.59" r="92.59"/><path class="cls-2" d="M400.54,249.85s71.95,40.1,102.62,61.34c30.67,21.23,68.41,188.72,68.41,188.72"/><path class="cls-2" d="M38.52,406.94s147.44-26.54,168.67-41.87c21.23-15.33,95.54-121.49,95.54-121.49"/><path class="cls-3" d="M274.61,222.67l-23.63,154.78v194.03s49.98,10.62,60.01,30.08h104.39s10.03-2.95,15.33-37.74l5.46-333.22s-8.4-14.15-25.51-18.28c-17.1-4.13-93.61-8.85-93.61-8.85,0,0-14.35-1.88-29.44,3.35-6.94,2.4-11.88,8.59-12.99,15.86Z"/><path class="cls-1" d="M346.18,563.11s-91.82-1.95-238.07-4.57l82.27,191.05"/><line class="cls-1" x1="390.46" y1="554.13" x2="376.9" y2="918.6"/><path class="cls-3" d="M840.35,248.56v191.66h-40.62v-191.66h40.62ZM961.27,248.56l-67,92.44,73.77,99.21h-53.69l-70.97-97.81,67.23-93.84h50.66Z"/><path class="cls-3" d="M1085.93,293.85c36.42.93,47.62,13.54,46.46,52.99v93.38h-40.15v-83.81c-.47-24.98-2.8-27.31-27.55-27.55h-29.18v111.35h-41.09v-146.37h91.51Z"/><path class="cls-3" d="M1199.85,383.49v9.57c.93,10.27,4.67,12.14,22.64,12.14h83.81v35.02h-90.81c-36.42.93-54.39-14.47-54.39-47.16v-52.99c.23-30.58,12.84-45.99,38.05-46.22h63.73c30.35.93,40.39,10.97,41.32,41.32v48.32h-104.35ZM1262.41,351.98v-8.87c-.23-11.21-3.27-14.01-15.41-14.24h-30.35c-14.24.23-16.58,2.33-16.81,15.41v7.7h62.56Z"/><path class="cls-3" d="M1370.73,383.49v9.57c.93,10.27,4.67,12.14,22.64,12.14h83.81v35.02h-90.81c-36.42.93-54.39-14.47-54.39-47.16v-52.99c.23-30.58,12.84-45.99,38.05-46.22h63.73c30.35.93,40.39,10.97,41.32,41.32v48.32h-104.35ZM1433.29,351.98v-8.87c-.23-11.21-3.27-14.01-15.41-14.24h-30.35c-14.24.23-16.58,2.33-16.81,15.41v7.7h62.56Z"/><path class="cls-3" d="M799.73,528.7h167.85v36.65h-123.02v36.88h108.55v36.88h-108.55v81.24h-44.82v-191.66Z"/><path class="cls-3" d="M1032,663.63v9.57c.93,10.27,4.67,12.14,22.64,12.14h83.81v35.02h-90.81c-36.42.93-54.39-14.47-54.39-47.16v-52.99c.23-30.58,12.84-45.99,38.05-46.22h63.73c30.35.93,40.39,10.97,41.32,41.32v48.32h-104.35ZM1094.57,632.11v-8.87c-.23-11.21-3.27-14.01-15.41-14.24h-30.35c-14.24.23-16.58,2.33-16.81,15.41v7.7h62.56Z"/><path class="cls-3" d="M1232.3,685.34c12.37,0,14.71,0,17.51-.7,5.37-1.17,7.47-3.74,7.47-9.1,0-7.7-4.9-11.21-15.41-11.21h-33.38c-26.61,1.17-41.09-9.34-42.02-30.35v-29.65c.7-22.41,13.07-30.58,45.52-30.35h81v35.02h-73.3c-12.84,0-15.64,2.1-15.64,12.14,0,7,1.87,8.17,12.61,8.17h43.42c26.61-.7,37.58,7.24,38.75,27.78v27.08c-.47,25.68-12.84,35.95-44.35,36.18h-89.18v-35.02h67Z"/><path class="cls-3" d="M1357.19,574.92v-40.62h41.79v40.62h38.99v35.02h-38.99v60.23c.23,14.47.93,15.17,15.64,15.64h21.48v34.55h-34.08c-35.02.47-44.35-7.7-44.82-40.39v-70.03h-33.85v-35.02h33.85Z"/><path class="cls-3" d="M1500.53,720.35c-24.04,0-37.12-9.8-39.22-29.18v-34.32c0-12.37,6.77-23.11,17.97-28.48,4.44-2.33,9.8-3.04,21.94-3.04h60.93c-1.17-15.41-2.1-16.34-19.38-16.34h-79.37v-35.02h88.48c39.45-.47,52.06,11.67,51.59,50.66v95.71h-102.95ZM1564.26,656.86h-49.96c-11.91.23-14.47,1.87-14.71,9.57v10.5c0,6.77,2.8,8.17,14.71,8.4h49.96v-28.48Z"/></svg>